<svg width="400" height="400" viewBox="0 0 400 400" fill="none" xmlns="http://www.w3.org/2000/svg">
<rect width="400" height="400" rx="180" fill="black"/>
<path d="M242.812 110.313C243.438 108.438 242.812 106.563 241.562 106.25C240.312 105.938 238.75 106.875 238.125 108.75L199.062 215.625L201.562 216.563L242.812 110.313Z" fill="#F29A2E"/>
<path d="M242.187 155.938C241.25 163.438 232.187 168.125 221.875 166.875C211.875 165.625 204.375 158.438 205.312 151.25C206.25 143.75 215.312 139.063 225.625 140.313C235.937 141.563 243.125 148.438 242.187 155.938Z" fill="#8CC63E"/>
<path d="M220 152.812C219.375 157.5 215.937 160.937 212.5 160.312C209.062 160 206.562 155.625 207.187 151.25C207.812 146.562 211.25 143.125 214.687 143.75C218.125 144.062 220.625 148.437 220 152.812Z" fill="#CE114B"/>
<path d="M195 179.062C190.937 185.312 194.687 194.687 203.437 200C212.187 205.312 222.5 204.375 226.562 198.125C230.625 191.875 226.875 182.5 218.125 177.187C209.375 172.187 199.062 172.812 195 179.062Z" fill="#8CC63E"/>
<path d="M214.063 190.625C211.563 194.688 211.875 199.375 215 201.25C218.125 203.125 222.5 201.25 225 197.5C227.5 193.438 227.188 188.75 224.063 186.875C221.25 185 216.563 186.875 214.063 190.625Z" fill="#CE114B"/>
<path opacity="0.8" d="M284.375 158.125H115.625C115.625 158.125 175.312 225 196.25 233.75C196.25 240.312 195.625 264.062 193.437 274.375C181.875 284.375 157.812 291.25 157.5 291.25C156.875 291.562 156.563 292.187 156.875 292.812C156.875 293.437 157.5 294.062 157.812 294.062H241.875C242.5 294.062 242.813 293.437 242.813 292.812C242.813 292.187 242.5 291.562 242.188 291.25C241.875 291.25 217.813 284.375 206.25 274.375C204.063 264.062 203.75 240.312 203.75 233.75C225 224.687 284.375 158.125 284.375 158.125ZM200 227.188C187.188 227.188 131.563 165.312 131.563 165.312H268.125C268.437 165.312 212.812 227.188 200 227.188Z" fill="#A1B8C7"/>
<path opacity="0.7" d="M254.375 170.938C254.375 170.938 210.312 220.312 200 220.312C189.687 220.312 145.625 170.938 145.625 170.938H254.375Z" fill="#F3FFD2"/>
</svg>
